HIERARCHY
ROOT root
{
	OFFSET	0	13.1	24.9
	CHANNELS 6  Xposition Yposition Zposition Xrotation Yrotation Zrotation
	JOINT spine_1
	{
		OFFSET	0	9.99999	0
		CHANNELS 3  Xrotation Yrotation Zrotation
		JOINT spine_2
		{
			OFFSET	0	112	-10
			CHANNELS 3  Xrotation Yrotation Zrotation
			JOINT spine_3
			{
				OFFSET	0	206.5	19.3
				CHANNELS 3  Xrotation Yrotation Zrotation
				JOINT spine_4
				{
					OFFSET	0	110.4	14.6
					CHANNELS 3  Xrotation Yrotation Zrotation
					JOINT neck_1
					{
						OFFSET	0	71.8	-50.3
						CHANNELS 3  Xrotation Yrotation Zrotation
						JOINT neck_2
						{
							OFFSET	0	86.2	-25.8
							CHANNELS 3  Xrotation Yrotation Zrotation
							JOINT head_ee
							{
								OFFSET	0	179.8	-8.7
								CHANNELS 3  Xrotation Yrotation Zrotation
								End Site
								{
									OFFSET	1	0	0
								}
							}
						}
					}
					JOINT left_clavicle
					{
						OFFSET	-43.2	22.4	-70.8
						CHANNELS 3  Xrotation Yrotation Zrotation
						JOINT left_shoulder
						{
							OFFSET	-93.9	-5.79999	48.7
							CHANNELS 3  Xrotation Yrotation Zrotation
							JOINT left_elbow
							{
								OFFSET	-291.4	-30.8	15.2
								CHANNELS 3  Xrotation Yrotation Zrotation
								JOINT left_lowarm_twist
								{
									OFFSET	-110.7	-3.89999	13.6
									CHANNELS 3  Xrotation Yrotation Zrotation
									JOINT left_hand
									{
										OFFSET	-110.7	-3.89999	13.6
										CHANNELS 3  Xrotation Yrotation Zrotation
										JOINT left_ee
										{
											OFFSET	-80.8	-5.10001	12.1
											CHANNELS 3  Xrotation Yrotation Zrotation
											End Site
											{
												OFFSET	1	0	0
											}
										}
									}
								}
							}
						}
					}
					JOINT right_clavicle
					{
						OFFSET	43.2	22.4	-70.8
						CHANNELS 3  Xrotation Yrotation Zrotation
						JOINT right_shoulder
						{
							OFFSET	93.9	-5.79999	48.7
							CHANNELS 3  Xrotation Yrotation Zrotation
							JOINT right_elbow
							{
								OFFSET	291.4	-30.8	15.2
								CHANNELS 3  Xrotation Yrotation Zrotation
								JOINT right_lowarm_twist
								{
									OFFSET	110.7	-3.89999	13.6
									CHANNELS 3  Xrotation Yrotation Zrotation
									JOINT right_hand
									{
										OFFSET	110.7	-3.89999	13.6
										CHANNELS 3  Xrotation Yrotation Zrotation
										JOINT right_ee
										{
											OFFSET	80.8	-5.10001	12.1
											CHANNELS 3  Xrotation Yrotation Zrotation
											End Site
											{
												OFFSET	1	0	0
											}
										}
									}
								}
							}
						}
					}
				}
			}
		}
	}
	JOINT left_hip
	{
		OFFSET	-82.8	-127.5	0.300001
		CHANNELS 3  Xrotation Yrotation Zrotation
		JOINT left_knee
		{
			OFFSET	-28.2	-396.7	2.2
			CHANNELS 3  Xrotation Yrotation Zrotation
			JOINT left_ankle
			{
				OFFSET	-11.7	-411.3	35.4
				CHANNELS 3  Xrotation Yrotation Zrotation
				JOINT left_toes
				{
					OFFSET	0	-60	-88.6
					CHANNELS 3  Xrotation Yrotation Zrotation
					JOINT left_foot_ee
					{
						OFFSET	-22.5	-16.5	-42.2
						CHANNELS 3  Xrotation Yrotation Zrotation
						End Site
						{
							OFFSET	1	0	0
						}
					}
				}
			}
		}
	}
	JOINT right_hip
	{
		OFFSET	82.8	-127.5	0.300001
		CHANNELS 3  Xrotation Yrotation Zrotation
		JOINT right_knee
		{
			OFFSET	28.2	-396.7	2.2
			CHANNELS 3  Xrotation Yrotation Zrotation
			JOINT right_ankle
			{
				OFFSET	11.7	-411.3	35.4
				CHANNELS 3  Xrotation Yrotation Zrotation
				JOINT right_toes
				{
					OFFSET	0	-60	-88.6
					CHANNELS 3  Xrotation Yrotation Zrotation
					JOINT right_foot_ee
					{
						OFFSET	22.5	-16.5	-42.2
						CHANNELS 3  Xrotation Yrotation Zrotation
						End Site
						{
							OFFSET	1	0	0
						}
					}
				}
			}
		}
	}
}
MOTION
Frames: 8
Frame Time: 0.02
1026.46 720.734 -1551.28 -31.5156 70.0145 48.4871 3.47067 -0.719449 -4.49885 3.48183 -0.432019 -4.53541 3.51116 0.252823 -4.54889 3.4826 -0.468007 -4.53185 5.01303 -4.50952 2.4739 5.17331 -9.89182 2.61602 -0.0 0.0 -0.0 10.5818 8.65421 20.1127 20.1869 -44.0847 65.7953 0.918128 -24.4564 0.198983 -25.4617 -1.55376 2.83361 -2.05978 8.35033 -9.89328 -0.0 0.0 -0.0 -1.27914 -22.8579 -0.875854 -31.3649 49.4829 -56.5017 0.942543 25.0278 -0.209201 -12.1834 0.584931 -1.44082 -3.67501 -3.90821 23.2671 0.0 0.0 0.0 17.7993 -1.45522 -15.0857 2.57819 -0.114724 -0.378941 29.6826 25.6611 -4.08682 -12.7385 0.0 0.0 -0.0 0.0 -0.0 40.5173 33.1264 -24.5755 -14.8278 -0.321381 -2.24646 -7.3997 -24.0472 -1.13993 39.2526 -0.0 -0.0 0.0 0.0 0.0 
1018.33 726.971 -1555.96 -32.8359 70.3207 50.0373 3.36417 -0.484133 -4.68583 3.37636 -0.185318 -4.70708 3.38653 0.533561 -4.68047 3.35603 -0.211483 -4.70598 3.17725 -5.33843 3.07138 3.3836 -11.9126 3.08379 -0.0 0.0 -0.0 10.4393 9.25943 19.7703 20.6348 -45.3574 67.0988 0.929637 -24.7264 0.203772 -27.1578 -1.70008 2.9944 -2.09333 7.89487 -10.3355 -0.0 0.0 -0.0 -0.3534 -22.5028 -2.11606 -33.764 49.684 -53.8442 0.870218 23.3197 -0.179581 -12.1184 0.581007 -1.43349 -3.15349 -2.28209 20.4055 0.0 0.0 0.0 16.5241 -4.22879 -15.466 2.89634 -0.130061 -0.425341 25.6635 27.1939 -3.63886 -13.7129 0.0 0.0 -0.0 0.0 -0.0 39.9495 33.7651 -25.2689 -13.7905 -0.317923 -2.08736 -11.3214 -27.4946 -1.78589 39.1059 -0.0 -0.0 0.0 0.0 0.0 
1016.47 725.114 -1561.53 -36.1376 71.5131 54.188 3.41869 -0.631681 -4.75696 3.43121 -0.328058 -4.78742 3.45329 0.398687 -4.78207 3.42157 -0.360666 -4.78508 4.22056 -5.02226 0.361064 4.31396 -8.98144 0.123637 -0.0 0.0 -0.0 10.8572 7.4596 20.783 19.9581 -44.0508 65.7472 0.913866 -24.356 0.197222 -28.5128 -1.82036 3.11972 -2.15272 8.03755 -10.6575 -0.0 0.0 -0.0 -0.558785 -22.4355 -1.8209 -31.6047 48.4634 -56.1647 0.824962 22.2278 -0.162062 -10.7473 0.500182 -1.27779 -3.65192 -4.38251 22.8387 0.0 0.0 0.0 17.4507 -2.22238 -16.2348 3.32121 -0.150947 -0.487176 27.0863 26.8407 -3.80606 -14.073 0.0 0.0 -0.0 0.0 -0.0 39.033 34.4901 -25.787 -11.1581 -0.296223 -1.68408 -14.5637 -29.437 -2.33305 39.206 -0.0 -0.0 0.0 0.0 0.0 
1000.27 724.756 -1570.11 -40.7109 73.1392 59.1503 3.50446 -0.936336 -4.8366 3.51725 -0.627051 -4.88621 3.56506 0.107361 -4.92502 3.53186 -0.670858 -4.88041 7.76094 -6.57149 0.185387 7.9419 -11.1703 0.0767434 -0.0 0.0 -0.0 10.6736 8.5741 20.2985 19.0571 -43.889 67.4152 1.01928 -26.7895 0.242733 -29.2081 -1.88323 3.18292 -2.18273 7.70572 -11.0184 -0.0 0.0 -0.0 -0.769523 -23.181 -1.62479 -33.0178 48.6111 -55.5111 0.790388 21.382 -0.149219 -10.182 0.467951 -1.21305 -3.34905 -4.72332 20.4981 0.0 0.0 0.0 15.8208 -4.41599 -16.445 2.81182 -0.125962 -0.413023 25.9577 23.7416 -3.60081 -14.8422 0.0 0.0 -0.0 0.0 -0.0 37.5005 34.7426 -25.8493 -10.7196 -0.290808 -1.61701 -15.4706 -30.0977 -2.4912 40.2867 -0.0 -0.0 0.0 0.0 0.0 
988.817 726.582 -1575.35 -46.3891 74.6629 64.9611 3.52959 -1.00997 -4.77979 3.54202 -0.704135 -4.8342 3.59586 0.0204654 -4.88505 3.56336 -0.75038 -4.82725 4.71498 -8.73644 1.77052 5.08105 -16.5642 1.60659 -0.0 0.0 -0.0 10.5379 11.9147 19.6222 19.7599 -43.1317 71.2818 1.1229 -29.0841 0.291288 -32.2058 -2.16293 3.44657 -2.20037 7.20487 -11.3809 -0.0 0.0 -0.0 -1.20893 -24.3443 -1.18828 -34.1042 48.6215 -54.9028 0.889975 23.7908 -0.187476 -9.16636 0.411656 -1.09596 -2.77985 -4.11908 16.8453 0.0 0.0 0.0 15.4751 -5.07475 -16.9276 2.13406 -0.093744 -0.314028 25.2976 21.4348 -3.48017 -14.3885 0.0 0.0 -0.0 0.0 -0.0 35.4562 32.1214 -25.4057 -11.4485 -0.299525 -1.72851 -11.3553 -30.5286 -1.8268 40.2132 -0.0 -0.0 0.0 0.0 0.0 
983.063 726.432 -1578.34 -49.8529 74.9095 68.2277 3.63746 -0.965427 -4.73423 3.64968 -0.662573 -4.78591 3.69916 0.0458155 -4.83123 3.66732 -0.716877 -4.77809 4.83379 -7.91639 -1.10062 5.00945 -12.6434 -1.64493 -0.0 0.0 -0.0 9.73655 11.6513 18.1865 17.7674 -46.5027 71.1469 1.23136 -31.381 0.345911 -32.5056 -2.19166 3.47213 -2.03445 5.81537 -10.9514 -0.0 0.0 -0.0 -0.843708 -24.2383 -1.6642 -35.0749 48.3502 -53.8112 0.877608 23.4963 -0.182517 -8.88605 0.396487 -1.06347 -2.50242 -5.44321 14.2797 0.0 0.0 0.0 15.9964 -4.20518 -16.8091 2.18382 -0.0960697 -0.32131 23.6116 21.6827 -3.27781 -16.8499 0.0 0.0 -0.0 0.0 -0.0 36.254 33.9856 -26.1709 -11.4475 -0.299514 -1.72835 -15.1777 -30.7072 -2.45384 40.3546 -0.0 -0.0 0.0 0.0 0.0 
971.129 723.435 -1585.2 -53.1936 75.9496 71.6866 3.84558 -1.00178 -4.65838 3.85737 -0.703659 -4.71252 3.90889 -0.0232183 -4.76459 3.87806 -0.774561 -4.70141 -1.2321 -10.4914 0.639501 -0.992348 -19.3816 -0.566335 -0.0 0.0 -0.0 7.80276 12.7492 14.6404 16.7625 -47.9365 73.5152 1.42565 -35.2286 0.452656 -35.2412 -2.45987 3.69836 -1.66741 3.70875 -9.49379 -0.0 0.0 -0.0 -1.07615 -25.4467 -1.52104 -37.7996 47.6313 -52.0554 0.989304 26.1077 -0.229384 -8.34621 0.367723 -1.0007 -1.29463 -4.64996 6.58072 0.0 0.0 0.0 14.1978 -6.18083 -16.9581 1.37191 -0.05892 -0.202272 29.1051 18.2662 -3.87632 -17.0297 0.0 0.0 -0.0 0.0 -0.0 35.5476 33.1767 -26.4668 -12.3007 -0.307917 -1.859 -13.7601 -30.672 -2.22136 40.1849 -0.0 -0.0 0.0 0.0 0.0 
961.563 726.074 -1586.79 -52.5097 76.7285 71.1346 3.84865 -1.01073 -4.6306 3.86029 -0.714355 -4.68537 3.91242 -0.0380163 -4.73924 3.88195 -0.785185 -4.67404 -4.62761 -12.3771 -1.39694 -4.5096 -21.6852 -3.49933 -0.0 0.0 -0.0 5.90163 15.7662 11.2716 16.2992 -50.9264 76.3261 1.60373 -38.4621 0.559483 -35.9443 -2.53053 3.75442 -1.56287 2.27266 -9.45553 -0.0 0.0 -0.0 -0.494977 -24.744 -2.19535 -38.046 46.1704 -51.2059 0.96487 25.5459 -0.218739 -7.25099 0.311195 -0.872542 -1.07783 -4.89099 5.04009 0.0 0.0 0.0 13.4272 -4.46683 -16.8776 1.31485 -0.0563728 -0.193887 28.7683 16.8904 -3.82005 -19.1592 0.0 0.0 -0.0 0.0 -0.0 34.7937 32.7845 -26.8932 -12.8869 -0.312562 -1.94881 -14.0647 -31.4209 -2.28341 40.0956 -0.0 -0.0 0.0 0.0 0.0 
